<svg width="26" height="25" viewBox="0 0 26 25" fill="none" xmlns="http://www.w3.org/2000/svg">
<path d="M17.784 20.672H25.592V24H13.272L17.784 20.672ZM0.824 12.416C0.824 10.816 1.12267 9.30133 1.72 7.872C2.33867 6.44267 3.192 5.17333 4.28 4.064C5.368 2.95467 6.62667 2.09067 8.056 1.472C9.48533 0.831999 11.0213 0.511999 12.664 0.511999C14.2853 0.511999 15.8107 0.831999 17.24 1.472C18.6693 2.09067 19.9387 2.95467 21.048 4.064C22.1573 5.17333 23.0213 6.44267 23.64 7.872C24.2587 9.30133 24.568 10.816 24.568 12.416C24.568 14.0587 24.2587 15.5947 23.64 17.024C23.0213 18.4533 22.1573 19.712 21.048 20.8C19.96 21.888 18.6907 22.7413 17.24 23.36C15.8107 23.9573 14.2853 24.256 12.664 24.256C11.0213 24.256 9.48533 23.9573 8.056 23.36C6.62667 22.7627 5.368 21.9307 4.28 20.864C3.192 19.776 2.33867 18.5173 1.72 17.088C1.12267 15.6373 0.824 14.08 0.824 12.416ZM4.344 12.448C4.344 13.6 4.55733 14.6987 4.984 15.744C5.432 16.768 6.04 17.6747 6.808 18.464C7.576 19.232 8.46133 19.84 9.464 20.288C10.488 20.736 11.5867 20.96 12.76 20.96C13.912 20.96 14.9893 20.736 15.992 20.288C16.9947 19.84 17.8693 19.232 18.616 18.464C19.384 17.696 19.9813 16.8 20.408 15.776C20.8347 14.7307 21.048 13.6107 21.048 12.416C21.048 11.2427 20.824 10.144 20.376 9.12C19.9493 8.096 19.352 7.2 18.584 6.432C17.8373 5.64267 16.952 5.024 15.928 4.576C14.9253 4.128 13.848 3.904 12.696 3.904C11.5013 3.904 10.4027 4.128 9.4 4.576C8.39733 5.024 7.512 5.64267 6.744 6.432C5.976 7.22133 5.37867 8.128 4.952 9.152C4.54667 10.176 4.344 11.2747 4.344 12.448Z" fill="#0BD366"/>
</svg>
